<?xml version="1.0" encoding="UTF-8"?><svg id="Layer_2" xmlns="http://www.w3.org/2000/svg" viewBox="0 0 513.5 430.23"><defs><style>.cls-1{fill:#cd2027;}.cls-2{fill:#c3e9fa;}.cls-3{fill:#162d32;}.cls-4{fill:#005694;}.cls-5{fill:none;stroke:#819ca9;stroke-linecap:round;stroke-linejoin:round;stroke-width:8px;}.cls-6{fill:#faba18;}.cls-7{fill:#f17422;}.cls-8{fill:#751114;}.cls-9{fill:#152d32;}.cls-10{fill:#172d32;}.cls-11{fill:#148ccc;}</style></defs><g id="Layer_2-2"><path class="cls-7" d="M442.54,93.99c10.72,9.76,22.98,17.77,33.95,27.22,2.02,1.74,12.94,11.31,13.26,12.76.44,2.05-2.88,3.79-4.35,4.85-15.76,11.38-34.58,20.37-50.75,31.33,5.82,2.28,12.72.19,16.45,6.43,1,1.67,1.07,3.41,1.7,5.01-3.02-1.53-6.24-.31-9.5-1.16-5.87-1.52-32.05-28.39-34.85-34.6-6-13.3,4.61-27.66,12.8-38.02,4.4-5.57,13.34-16.39,21.29-13.83Z"/><path class="cls-7" d="M457.54,254.21c-21.8,105.06-132.81,159.29-231.47,119.78-30.37-12.16-57.4-33.31-78.71-57.84l1.16-1.16c41.66,20.82,94.82,26.49,132.23-5.92,4.55-3.94,14.23-13.74,17.35-18.56,4.33,3.72,9.06,7.27,14.17,9.9,43.26,22.23,95.19,11.14,127.52-24.89,4.54-5.05,8.02-10.91,12.24-16.17,1.33-1.65,3.43-4.63,5.5-5.15Z"/><path class="cls-6" d="M442.54,93.99c-7.94-2.56-16.89,8.27-21.29,13.83-8.19,10.36-18.8,24.71-12.8,38.02,2.8,6.21,28.98,33.08,34.85,34.6,3.25.84,6.48-.37,9.5,1.16,10.11,25.64,10.26,45.97,4.74,72.61-2.07.52-4.18,3.5-5.5,5.15-4.23,5.26-7.71,11.12-12.24,16.17-32.33,36.03-84.25,47.12-127.52,24.89-5.11-2.63-9.84-6.18-14.17-9.9,12.77-19.72,17.55-48.38,12.38-71.18-4.25-18.74-17.22-38.63-36.06-44.84-5.9-6.47-14.52-11.11-20.5-18.57-5.58-6.96-7.28-14.23-11.07-21.69-8.21-46.71,14.37-92.79,57.88-112.22,58.32-26.04,130.8,7.99,141.81,71.96ZM352.37,89.46c-26.48,3.8-22.32,50.16,6.04,46.29,26.38-3.6,23.82-50.58-6.04-46.29Z"/><path class="cls-10" d="M352.37,89.46c29.87-4.29,32.42,42.69,6.04,46.29-28.37,3.87-32.53-42.48-6.04-46.29Z"/><path class="cls-1" d="M309.89,282.65l-67.72,33.42c-13.01,8.6-6.77,28.85,8.82,28.64l75.53-12.03-16.63-50.02Z"/><path class="cls-8" d="M311,300.15c-2.68.11-2.64.86-5.23,1.9-55.76,22.38-64.02,26.93-67.59,34.66.43-5.32-.69-11.65-.26-16.98,0,0,68.55-35.91,68.1-34.99s4.98,15.42,4.98,15.42Z"/><path class="cls-9" d="M231.32,319.48c1.65-3.3,4.21-6.2,7.55-8.41l.65-.37,73.89-36.46,21.03,63.27-82.93,13.21h-.43c-9.83.14-18.06-5.84-20.95-15.24-1.71-5.57-1.21-11.19,1.19-15.98ZM245.21,321.27c-4.17,2.93-4.61,7.4-3.61,10.66,1,3.24,3.87,6.68,8.93,6.78l68.07-10.85-12.23-36.78-61.17,30.18Z"/><path class="cls-1" d="M496.96,324.23c24.63-49.17,4.74-109-44.43-133.63-49.17-24.63-109-4.74-133.63,44.43-24.63,49.17-4.74,109,44.43,133.63,49.17,24.63,109,4.74,133.63-44.43ZM355.29,253.25c14.57-29.08,49.94-40.84,79.02-26.27,29.08,14.57,40.84,49.94,26.27,79.02s-49.94,40.84-79.02,26.27c-29.08-14.57-40.84-49.94-26.27-79.02Z"/><path class="cls-8" d="M480.6,211.42c-12.75-3.62-37.8,1.34-70.23,6.23-34.78,5.24-94.31,64.27-95.75,81.97-15.69-29.28-2.63,7.68-7.65-27.39l10.97-35.3,28.06-34.01,46.83-21.66,60.51,8.04,27.25,22.13Z"/><path class="cls-3" d="M313.54,232.34c26.07-52.05,89.63-73.18,141.68-47.1,52.05,26.07,73.18,89.63,47.1,141.68s-89.63,73.18-141.68,47.1c-52.05-26.07-73.18-89.63-47.1-141.68ZM491.6,321.54c23.11-46.13,4.38-102.46-41.75-125.58-46.13-23.11-102.46-4.38-125.58,41.75-23.11,46.13-4.38,102.46,41.75,125.58,46.13,23.11,102.47,4.38,125.58-41.75Z"/><circle class="cls-2" cx="407.93" cy="279.62" r="65.81"/><path class="cls-5" d="M441.98,241.48c-2.35-2.04-20.31-17.12-43.95-12.59-20.85,3.99-37.59,21.59-41.67,44.23"/><path class="cls-11" d="M102.36,220.27L13.96,159.5c.13-.57-.3-1.37.19-2.14.31-.49,5.64-4.15,6.67-4.8,17.39-11.03,38.05-19.22,55.46-30.58,2.59-1.12,5.64-2.98,8.38-1.21l61.05,52.66c-13.07,14.25-26.16,28.46-39,42.92-1.3,1.46-3.29,2.74-4.35,3.94Z"/><path class="cls-4" d="M102.36,220.27c-3.14,3.54-6.82,9.36-10.64,13.43-1.2,1.28-4.31,5.18-5.91,4.37l-59.64-51.7c-5.68-6.9-12.58-15.66-12.96-25.04-.05-1.2.68-1.52.75-1.83l88.4,60.77Z"/><path class="cls-10" d="M382.75,377.41c-5.92,3.21-12.05,6.09-18.34,8.62,4.19,3.1,8.92,3.99,8.42,10.55-.6,7.83-10.37,8.3-16.31,6.41-4.8-1.53-14.15-8.02-18.56-8.33-3.73-.26-12.36,3-16.8,3.76-15.38,2.66-31.15,4.2-46.73,2.61,4.91,6.11,30.95,16.66,19.38,26.87-7.38,6.51-17.17-2.22-23.57-6.5-13.94-9.34-28.86-23.16-42.91-31.28-5.82-3.37-12.66-5.15-18.69-8.15-25.44-12.64-47.51-29.66-67.32-49.89-10.22-10.43-19.95-26.05-32.89-32.22-23.7-11.29-59.49-16.43-30.58-50.66-1.72-1.96-3.56-3.86-5.46-5.64C51.24,223.56,6.61,194.42.74,166.01c-2.69-13.05,2.07-17.29,12.02-23.89,15.48-10.26,37.9-22.29,54.71-30.54,6.28-3.08,13.39-7.19,20.47-4.35,24.05,17.6,45.77,38.42,69.17,56.94,21.12-19.43,44.76-36.01,69.56-50.46,1.24-15.8,3.43-30.11,9.73-44.73,43.63-101.31,194.36-87.61,220,18.63,12.35,12.19,32.16,22.81,42.98,35.95,17.87,21.68-23.36,34.78-36.14,44.98,4.94,10.68,8.19,21.77,9.99,33.07l-16.41-8.36c-1.11-3.78-2.44-7.65-4.02-11.65-.63-1.6-.7-3.35-1.7-5.01-3.73-6.24-10.63-4.15-16.45-6.43,16.17-10.97,34.99-19.96,50.75-31.33,1.47-1.06,4.79-2.8,4.35-4.85-.31-1.45-11.23-11.02-13.26-12.76-10.97-9.45-23.23-17.46-33.95-27.22-11.01-63.97-83.49-98.01-141.81-71.96-43.5,19.43-66.09,65.5-57.88,112.22-.61-1.21-4.63-8.2-5.13-8.68-.72-.69-1.14-1.09-2.19-.67-34.82,19.35-64.82,44.12-92.54,72.48-18.45,18.88-39.84,41.67-56.04,62.35-3.95,5.04-9.66,10.33-2.51,15.16,9.55,6.45,46.2,20.15,58.16,23.53.75,1.58,2.48,2.12,3.96,2.75,17.26,7.29,43.42,16.44,61.95,17.76,55.66,3.98,98.33-37.71,89.57-93.91-2.95-18.95-10.68-36.25-23.68-50.51,18.83,6.21,31.8,26.1,36.06,44.84,5.18,22.8.39,51.46-12.38,71.18-3.12,4.82-12.81,14.62-17.35,18.56-37.42,32.41-90.57,26.74-132.23,5.92l-1.16,1.16c9.99,11.49,21.24,22.25,33.5,31.68,13.89,10.69,29.08,19.69,45.22,26.15,47.99,19.22,98.91,16.25,141.06-3.95l15.61,7.37ZM102.36,220.27c1.06-1.2,3.05-2.48,4.35-3.94,12.85-14.46,25.93-28.67,39-42.92l-61.05-52.66c-2.74-1.77-5.79.09-8.38,1.21-17.41,11.36-38.07,19.55-55.46,30.58-1.03.65-6.37,4.32-6.67,4.8-.49.78-.06,1.57-.19,2.14-.07.31-.8.63-.75,1.83.37,9.38,7.28,18.14,12.96,25.04l59.64,51.7c1.6.81,4.71-3.09,5.91-4.37,3.83-4.07,7.51-9.88,10.64-13.43Z"/><path class="cls-11" d="M244.41,133.36c2.72,7.91,3.93,15.6,9.51,22.57,5.98,7.46,14.61,12.09,20.5,18.57,12.82,14.07,20.52,31.1,23.56,49.76.08.5.1,1.01.04,1.51-2.59,23.42-19.52,45.06-38.35,58.29-33.25,23.38-78.74,25.15-117.06,14.35-11.97-3.37-48.61-17.07-58.16-23.53-7.15-4.83-1.44-10.12,2.51-15.16,16.2-20.68,37.59-43.47,56.04-62.35,27.65-28.29,62.11-56.21,96.84-75.55.17-.09.35-.18.53-.26.85-.38,1.16-.71,1.16-.71,0,0,1.4,8.2,2.89,12.51Z"/><path class="cls-4" d="M142.62,298.41c38.32,10.8,83.81,9.02,117.06-14.35,19.03-13.38,36.13-35.34,38.43-59.05,8.76,56.2-33.91,97.89-89.57,93.91-18.53-1.33-44.69-10.47-61.95-17.76-1.49-.63-3.21-1.17-3.96-2.75Z"/></g></svg>